<svg xmlns="http://www.w3.org/2000/svg" width="17" height="17" viewBox="0 0 17 17" fill="none">
<path d="M8.50313 1.84007C10.5639 1.89451 12.3915 2.83548 13.6357 4.29749L14.6622 3.27875C14.9033 3.03767 15.3232 3.20876 15.3232 3.55871V6.89488C15.3232 7.11263 15.1522 7.28371 14.9344 7.28371H11.5982C11.2483 7.28371 11.0772 6.86378 11.3261 6.6227L12.5314 5.40954C11.5282 4.18861 10.0196 3.3954 8.32427 3.3954C4.96476 3.3954 2.30515 6.45939 2.9895 9.93555C3.40944 12.0897 5.17473 13.8083 7.32886 14.1894C10.284 14.7182 12.9125 12.8362 13.5891 10.1766C13.6824 9.85 13.9934 9.6167 14.3356 9.6167C14.8411 9.6167 15.2221 10.0911 15.0977 10.5732C14.3278 13.5983 11.5905 15.838 8.32427 15.838C4.38929 15.838 1.21643 12.5952 1.3253 8.63685C1.43417 4.84185 4.70813 1.74675 8.50313 1.84007ZM6.76894 8.83904C6.76894 7.98361 7.46884 7.28371 8.32427 7.28371C9.1797 7.28371 9.8796 7.98361 9.8796 8.83904C9.8796 9.69447 9.1797 10.3944 8.32427 10.3944C7.46884 10.3944 6.76894 9.69447 6.76894 8.83904Z" fill="white"/>
</svg>