<svg width="17" height="17" viewBox="0 0 17 17" fill="none" xmlns="http://www.w3.org/2000/svg">
<path d="M8.05058 1.84007C5.98977 1.89451 4.16226 2.83548 2.918 4.29749L1.89148 3.27875C1.65041 3.03767 1.23047 3.20876 1.23047 3.55871V6.89488C1.23047 7.11263 1.40155 7.28371 1.6193 7.28371H4.95548C5.30543 7.28371 5.47651 6.86378 5.22766 6.6227L4.02228 5.40954C5.02547 4.18861 6.53413 3.3954 8.22944 3.3954C11.5889 3.3954 14.2486 6.45939 13.5642 9.93555C13.1443 12.0897 11.379 13.8083 9.22485 14.1894C6.26973 14.7182 3.64123 12.8362 2.96466 10.1766C2.87134 9.85 2.56027 9.6167 2.2181 9.6167C1.71262 9.6167 1.33156 10.0911 1.45599 10.5732C2.22588 13.5983 4.96325 15.838 8.22944 15.838C12.1644 15.838 15.3373 12.5952 15.2284 8.63685C15.1195 4.84185 11.8456 1.74675 8.05058 1.84007ZM9.78477 8.83904C9.78477 7.98361 9.08487 7.28371 8.22944 7.28371C7.37401 7.28371 6.67411 7.98361 6.67411 8.83904C6.67411 9.69447 7.37401 10.3944 8.22944 10.3944C9.08487 10.3944 9.78477 9.69447 9.78477 8.83904Z" fill="white" fill-opacity="0.5"/>
</svg>
