<svg width="19" height="19" viewBox="0 0 19 19" fill="none" xmlns="http://www.w3.org/2000/svg">
<path d="M11.2611 5.89347C12.3656 5.89347 13.2611 6.7889 13.2611 7.89347V10.5601C13.2611 11.6647 12.3656 12.5601 11.2611 12.5601H8.5944C7.48983 12.5601 6.5944 11.6647 6.5944 10.5601V7.89347C6.5944 6.7889 7.48983 5.89347 8.5944 5.89347H11.2611ZM14.9277 6.22681C14.9277 5.12224 14.0323 4.22681 12.9277 4.22681H6.92773C5.82316 4.22681 4.92773 5.12224 4.92773 6.22681V12.2268C4.92773 13.3314 5.82317 14.2268 6.92773 14.2268H12.9277C14.0323 14.2268 14.9277 13.3314 14.9277 12.2268V6.22681Z" fill="#DE0050"/>
</svg>
