<svg width="25" height="25" viewBox="0 0 25 25" fill="none" xmlns="http://www.w3.org/2000/svg">
<g clip-path="url(#clip0_215_1776)">
<path d="M3.8208 22.9692L6.04378 20.7463C7.06007 21.3995 8.27019 21.6859 9.473 21.556C10.7027 21.4233 11.8471 20.864 12.7073 19.9753L15.5293 17.1533L15.6 17.0826L15.5293 17.0119L8.45824 9.94079L8.38753 9.87008L8.31682 9.94079L5.47116 12.7864C4.58912 13.6466 4.03594 14.7883 3.9076 16.0136C3.78209 17.2118 4.0706 18.416 4.72369 19.4265L2.50086 21.6493L2.43015 21.72L2.50086 21.7907L3.67937 22.9692L3.75009 23.0399L3.8208 22.9692ZM6.79064 14.1068L8.44645 12.451L13.0191 17.0236L11.3633 18.6795L11.3632 18.6794L11.3614 18.6814C10.7495 19.3277 9.90856 19.7083 9.01919 19.7414C8.13128 19.7746 7.26574 19.4588 6.60779 18.8618C6.00502 18.2068 5.68536 17.3402 5.71854 16.4505C5.75178 15.5594 6.13633 14.7177 6.78817 14.1092L6.78821 14.1093L6.79064 14.1068Z" fill="#36A900" stroke="#36A900" stroke-width="0.2"/>
<path d="M20.1958 4.09545L20.125 4.02474L20.0543 4.09545L17.8842 6.26556C16.867 5.61534 15.6576 5.33087 14.4557 5.46061C13.2269 5.59324 12.0828 6.15052 11.2209 7.03632L8.31636 9.94087L8.24565 10.0116L8.31636 10.0823L9.49487 11.2608L10.6734 12.4393L13.0304 14.7963L14.2089 15.9748L15.3874 17.1534L15.4581 17.2241L15.5288 17.1534L18.4391 14.2431C19.3303 13.3832 19.8916 12.2381 20.0255 11.007C20.1564 9.80285 19.8702 8.59106 19.2161 7.57355L21.3743 5.41539L21.445 5.34467L21.3743 5.27396L20.1958 4.09545ZM15.4581 14.5842L10.8855 10.0116L12.5472 8.34988L12.5473 8.34992L12.5496 8.34741C13.1581 7.69556 13.9998 7.31102 14.8909 7.27778C15.7807 7.24459 16.6474 7.56434 17.3024 8.16727C17.9054 8.82229 18.2251 9.68905 18.1919 10.5788C18.1587 11.4699 17.7742 12.3116 17.1223 12.9201L17.1223 12.9201L17.1198 12.9225L17.1081 12.9343L15.4581 14.5842Z" fill="#36A900" stroke="#36A900" stroke-width="0.2"/>
</g>
<defs>
<clipPath id="clip0_215_1776">
<rect width="24" height="24" fill="white" transform="translate(0.291992 0.603882)"/>
</clipPath>
</defs>
</svg>
