<svg width="24" height="24" viewBox="0 0 24 24" fill="none" xmlns="http://www.w3.org/2000/svg">
<g clip-path="url(#clip0_215_1788)">
<path d="M4.25822 13.5333C3.39264 14.3771 2.84978 15.4974 2.72385 16.6996C2.59792 17.9019 2.89686 19.1103 3.56879 20.1153L1.28837 22.3957L2.46688 23.5742L4.7473 21.2938C5.75803 21.9658 6.9723 22.2625 8.17907 22.1323C9.38583 22.002 10.5088 21.453 11.3529 20.5808L14.1754 17.7582L7.10432 10.6872L4.25822 13.5333ZM11.8773 17.6993L10.1508 19.4258C9.52088 20.0911 8.65524 20.4829 7.73972 20.517C6.82419 20.5512 5.93177 20.225 5.25406 19.6085C4.63145 18.9337 4.30118 18.04 4.33541 17.1225C4.36964 16.205 4.76557 15.3383 5.43673 14.7118L7.16325 12.9853L11.8773 17.6993Z" fill="#DE0050"/>
<path d="M22.0621 1.44659L19.8348 3.67398C18.823 3.00508 17.6094 2.71029 16.4035 2.84045C15.1976 2.97062 14.075 3.51758 13.2292 4.38698L10.3242 7.29201L11.5027 8.47052L9.73491 10.2383C9.57863 10.3946 9.49084 10.6065 9.49084 10.8275C9.49084 11.0486 9.57863 11.2605 9.73491 11.4168C9.89119 11.5731 10.1032 11.6609 10.3242 11.6609C10.5452 11.6609 10.7571 11.5731 10.9134 11.4168L12.6812 9.64903L15.0382 12.0061L13.2704 13.7738C13.1142 13.9301 13.0264 14.1421 13.0264 14.3631C13.0264 14.5841 13.1142 14.7961 13.2704 14.9523C13.4267 15.1086 13.6387 15.1964 13.8597 15.1964C14.0807 15.1964 14.2927 15.1086 14.449 14.9523L16.2167 13.1846L17.3952 14.3631L20.3062 11.4522C21.1808 10.6085 21.7318 9.48476 21.8632 8.27665C21.9945 7.06854 21.6979 5.85263 21.0251 4.84071L23.2407 2.62511L22.0621 1.44659ZM19.1159 10.2854L17.3952 12.0061L12.6812 7.29201L14.4136 5.5596C15.0401 4.88844 15.9068 4.4925 16.8243 4.45828C17.7418 4.42405 18.6355 4.75432 19.3103 5.37693C19.9329 6.05171 20.2632 6.94546 20.229 7.86296C20.1947 8.78046 19.7988 9.64713 19.1276 10.2736L19.1159 10.2854Z" fill="#DE0050"/>
</g>
<defs>
<clipPath id="clip0_215_1788">
<rect width="24" height="24" fill="white"/>
</clipPath>
</defs>
</svg>
