<svg width="17" height="17" viewBox="0 0 17 17" fill="none" xmlns="http://www.w3.org/2000/svg">
<path d="M3.11328 14.1377C2.64915 14.1377 2.20403 13.9533 1.87584 13.6251C1.54766 13.2969 1.36328 12.8518 1.36328 12.3877V9.8877C1.36328 9.68878 1.4423 9.49802 1.58295 9.35737C1.7236 9.21671 1.91437 9.1377 2.11328 9.1377C2.31219 9.1377 2.50296 9.21671 2.64361 9.35737C2.78426 9.49802 2.86328 9.68878 2.86328 9.8877V12.3877C2.86328 12.5257 2.97528 12.6377 3.11328 12.6377H13.6133C13.6796 12.6377 13.7432 12.6114 13.7901 12.5645C13.8369 12.5176 13.8633 12.454 13.8633 12.3877V9.8877C13.8633 9.68878 13.9423 9.49802 14.083 9.35737C14.2236 9.21671 14.4144 9.1377 14.6133 9.1377C14.8122 9.1377 15.003 9.21671 15.1436 9.35737C15.2843 9.49802 15.3633 9.68878 15.3633 9.8877V12.3877C15.3633 12.8518 15.1789 13.2969 14.8507 13.6251C14.5225 13.9533 14.0774 14.1377 13.6133 14.1377H3.11328Z" fill="white"/>
<path d="M12.1428 4.85769C12.2124 4.92729 12.2676 5.00992 12.3053 5.10086C12.343 5.1918 12.3623 5.28926 12.3623 5.38769C12.3623 5.48612 12.343 5.58359 12.3053 5.67453C12.2676 5.76547 12.2124 5.84809 12.1428 5.91769C12.0732 5.98729 11.9906 6.0425 11.8996 6.08017C11.8087 6.11784 11.7112 6.13723 11.6128 6.13723C11.5144 6.13723 11.4169 6.11784 11.326 6.08017C11.235 6.0425 11.1524 5.98729 11.0828 5.91769L9.11281 3.94869V9.63769C9.11281 9.83661 9.0338 10.0274 8.89314 10.168C8.75249 10.3087 8.56173 10.3877 8.36281 10.3877C8.1639 10.3877 7.97314 10.3087 7.83248 10.168C7.69183 10.0274 7.61281 9.83661 7.61281 9.63769V3.94869L5.64281 5.91769C5.57321 5.98729 5.49059 6.0425 5.39965 6.08017C5.30871 6.11784 5.21124 6.13723 5.11281 6.13723C5.01438 6.13723 4.91692 6.11784 4.82598 6.08017C4.73504 6.0425 4.65241 5.98729 4.58281 5.91769C4.51321 5.84809 4.458 5.76547 4.42034 5.67453C4.38267 5.58359 4.36328 5.48612 4.36328 5.38769C4.36328 5.28926 4.38267 5.1918 4.42034 5.10086C4.458 5.00992 4.51321 4.92729 4.58281 4.85769L7.83281 1.60769C7.90238 1.53803 7.985 1.48276 8.07594 1.44506C8.16688 1.40735 8.26436 1.38794 8.36281 1.38794C8.46126 1.38794 8.55875 1.40735 8.64969 1.44506C8.74063 1.48276 8.82325 1.53803 8.89281 1.60769L12.1428 4.85769Z" fill="white"/>
</svg>
